# xmcd
#
# Track frame offsets: 
#        150
#        10632
#        21837
#        33157
#        44120
#        55175
#        67797
#        80547
#        96097
#        106160
#        119175
#        130947
#        144322
#        157565
#        169792
#        183922
#        197082
#        210487
#        220657
#        233685
#        247257
#        260120
#        273067
#        285817
#
# Disc length: 3957 seconds
#
# Revision: 7
# Processed by: cddbd v1.5.2PL0 Copyright (c) Steve Scherf et al.
# Submitted via: ExactAudioCopy v1.3
#
DISCID=440f7318
DTITLE=Howlin' Wolf - Howlin' Wolf - Moanin' in the Moonlight
DYEAR=1986
DGENRE=Blues
TTITLE0=Shake for Me
TTITLE1=The Red Rooster
TTITLE2=You'll Be Mine
TTITLE3=Who's Been Talkin'
TTITLE4=Wang-Dang Doodle
TTITLE5=Little Baby
TTITLE6=Spoonful
TTITLE7=Going Down Slow
TTITLE8=Down in the Bottom
TTITLE9=Back Door Man
TTITLE10=Howlin' for My Baby
TTITLE11=Tell Me
TTITLE12=Moanin' at Midnight
TTITLE13=How Many More Years
TTITLE14=Smokestack Lightnin'
TTITLE15=Baby, How Long
TTITLE16=No Place To Go
TTITLE17=All Night Boogie
TTITLE18=Evil (Is Goin' On)
TTITLE19=I'm Leavin' You
TTITLE20=Moanin' for My Baby
TTITLE21=I Asked for Water (She Gave Me Gasoline)
TTITLE22=Forty-Four
TTITLE23=Somebody in My Home
EXTD=MCA Records CHD-5908 c1986, 1959 p1986
EXTT0=
EXTT1=
EXTT2=
EXTT3=
EXTT4=
EXTT5=
EXTT6=
EXTT7=
EXTT8=
EXTT9=
EXTT10=
EXTT11=
EXTT12=
EXTT13=
EXTT14=
EXTT15=
EXTT16=
EXTT17=
EXTT18=
EXTT19=
EXTT20=
EXTT21=
EXTT22=
EXTT23=
PLAYORDER=
